<svg width="200" height="200" viewBox="0 0 200 200" fill="none" xmlns="http://www.w3.org/2000/svg">
  <defs>
    <linearGradient id="visserBlue" x1="0%" y1="0%" x2="100%" y2="100%">
      <stop offset="0%" style="stop-color:#60a5fa;stop-opacity:1" />
      <stop offset="50%" style="stop-color:#3b82f6;stop-opacity:1" />
      <stop offset="100%" style="stop-color:#1d4ed8;stop-opacity:1" />
    </linearGradient>
  </defs>
  
  <!-- Main swoosh element - top curve -->
  <path d="M20 70 C 30 40, 70 30, 110 45 C 140 55, 160 40, 180 60 C 185 70, 175 85, 160 95 C 140 110, 115 115, 90 110 C 70 105, 55 95, 50 85 C 45 75, 50 70, 60 70 C 80 70, 100 75, 120 80 C 140 85, 155 80, 165 75" fill="url(#visserBlue)"/>
  
  <!-- Main checkmark element - bottom sweep -->
  <path d="M70 90 C 50 100, 40 120, 45 140 C 50 160, 65 175, 85 180 C 105 185, 125 175, 140 160 C 155 145, 165 125, 170 105 C 175 90, 170 80, 160 85 C 145 95, 130 110, 115 125 C 100 140, 85 150, 75 155 C 65 160, 60 155, 65 145 C 70 130, 80 115, 95 105 C 110 95, 125 90, 140 90" fill="url(#visserBlue)"/>
</svg> 